<svg version="1.1" id="Layer_1" xmlns="http://www.w3.org/2000/svg" xmlns:xlink="http://www.w3.org/1999/xlink" x="0px" y="0px"
	 width="100%" viewBox="0 0 1024 672" enable-background="new 0 0 1024 672" xml:space="preserve">
<path fill="#000000" opacity="1.000000" stroke="none" 
	d="
M429.029694,509.032043 
	C422.786163,505.471985 416.715088,505.533112 410.018860,508.472809 
	C407.162109,509.726959 403.085541,508.686920 399.666901,508.093018 
	C384.635590,505.481659 370.585663,509.675781 356.584015,514.098877 
	C353.485474,515.077759 350.299744,516.234375 347.329865,515.130920 
	C341.394348,512.925537 337.788269,515.483459 334.732483,520.070679 
	C334.102844,521.015869 333.511017,522.102783 331.688507,522.254150 
	C329.393890,517.987366 332.054108,514.176514 333.168823,509.913513 
	C329.961243,508.888519 328.011078,504.259583 323.674835,506.555054 
	C320.510712,508.230011 317.622406,510.426056 314.447235,512.496704 
	C314.218353,506.393646 318.747253,500.492096 325.349213,497.737000 
	C332.401642,494.793915 339.814331,495.042175 347.027893,496.107849 
	C359.613953,497.967194 370.725769,495.278564 380.940033,487.749634 
	C391.945007,479.637909 402.648010,471.152557 413.219849,462.498230 
	C416.457886,459.847534 419.542389,457.429321 415.108368,452.522766 
	C412.644348,449.796082 412.117676,445.203888 411.038116,441.362488 
	C407.882568,430.134094 398.623108,423.963501 390.809784,416.581299 
	C374.065002,412.844482 367.717346,398.384705 359.561462,385.949097 
	C355.452057,379.683350 352.924255,372.528168 350.136047,365.565369 
	C348.839355,362.327271 347.455475,359.124146 345.719635,354.967926 
	C345.117950,357.759705 346.207092,359.993469 344.502167,361.816528 
	C341.963776,361.380341 340.865417,359.214325 339.499908,357.450439 
	C330.381683,345.672089 326.226196,331.818878 323.137604,317.584778 
	C319.236633,299.606537 316.811890,281.470673 319.780670,263.092041 
	C320.678223,257.535583 322.565430,252.139740 323.983521,246.666229 
	C324.549896,244.480240 325.829956,242.400238 325.172668,240.057327 
	C324.730011,239.856918 324.435059,239.606232 324.143860,239.610519 
	C322.238953,239.638504 320.519806,242.355759 318.655579,240.545883 
	C316.784485,238.729324 318.477142,236.402649 318.942780,234.412369 
	C319.545624,231.835815 320.771179,229.411926 321.530151,226.863220 
	C322.534058,223.492126 325.558685,220.510391 322.686462,216.363251 
	C321.869507,215.183640 323.334198,212.263412 324.019653,210.231506 
	C326.966766,201.494843 332.161285,193.886429 336.937653,185.403458 
	C330.382507,184.369827 333.140594,181.305969 335.198792,178.567719 
	C336.694458,176.577896 338.518066,174.838043 340.131134,172.932312 
	C344.133667,168.203583 347.810364,163.181000 351.519012,158.294144 
	C361.281281,145.430420 373.277191,134.573792 389.072784,128.700394 
	C405.620361,122.547363 422.573761,123.549316 437.104675,131.341766 
	C450.910492,138.745377 465.562134,139.736633 479.789734,143.736282 
	C496.021973,148.299484 510.039764,155.995377 517.693298,172.079330 
	C518.527649,173.832642 519.666809,175.628036 518.827271,177.748550 
	C518.529663,177.943695 518.203552,178.327118 517.992615,178.271713 
	C501.824554,174.024963 485.661194,178.466064 469.534515,178.752029 
	C455.791840,178.995743 449.755463,192.300476 453.564453,205.300461 
	C455.439423,211.699646 459.950958,214.173447 463.459106,218.363968 
	C471.104553,227.496628 481.515564,232.747406 490.881012,239.569916 
	C512.519348,255.332870 530.353027,274.861725 542.645020,298.935913 
	C547.220642,307.897308 552.861023,315.989288 559.254761,323.757446 
	C572.057861,339.312744 584.967285,354.853943 594.187317,372.974426 
	C595.243408,375.050049 596.370667,377.130341 597.082458,379.332062 
	C598.740295,384.460144 596.939941,386.624115 591.643982,386.246185 
	C590.536316,386.167114 589.429565,385.396332 588.173462,386.226868 
	C588.623901,389.506927 590.929443,391.783112 592.656555,394.373779 
	C595.062134,397.982117 597.411316,401.637177 598.876953,405.747803 
	C599.608276,407.798981 600.388916,410.252136 599.118958,412.052155 
	C596.576111,415.656250 598.401306,418.140808 599.938110,421.476013 
	C614.266907,452.573181 638.078064,477.066864 657.444153,504.642853 
	C662.234131,511.463501 667.233337,518.144836 670.638855,525.809998 
	C671.620667,528.019775 673.063232,530.264771 671.748779,532.938599 
	C669.235107,534.131775 667.623108,532.275208 665.952026,531.118042 
	C656.350708,524.469299 647.601135,516.731628 638.492188,509.452728 
	C635.535217,507.089813 632.726746,504.513611 628.699402,502.768646 
	C629.149109,505.631653 630.827209,507.280762 632.088867,509.119171 
	C637.745239,517.361267 643.440125,525.576843 649.106201,533.812195 
	C651.400452,537.146729 652.812866,540.878479 653.919434,544.741028 
	C654.561340,546.981934 654.494141,549.488953 652.690002,550.777527 
	C649.112793,553.332397 650.005127,556.091309 651.070312,559.425476 
	C652.354187,563.444092 653.150635,567.783997 649.395203,571.048035 
	C645.446167,574.480286 641.008850,573.514771 636.699646,571.651123 
	C635.026550,570.927612 633.417908,570.024780 631.858521,569.074707 
	C627.982910,566.713562 624.689514,564.789001 619.236145,565.859131 
	C612.283325,567.223694 605.255737,563.551208 600.066406,558.891174 
	C592.046997,551.689575 583.160034,546.378540 573.565308,541.586548 
	C560.766052,535.194153 553.937805,522.987305 547.438904,510.860809 
	C539.020081,495.151917 530.514038,479.486511 523.029236,463.296722 
	C522.484131,462.117706 521.696777,461.050659 520.649109,459.312927 
	C517.939575,465.383301 514.446106,462.756683 510.959656,460.892883 
	C507.346161,458.961121 504.494202,455.708649 499.566284,454.326355 
	C499.688171,461.746399 499.649048,469.064178 489.812134,472.360413 
	C488.688171,473.743286 489.279236,479.567352 483.186371,477.148926 
	C482.490814,476.872803 480.942688,478.377716 479.959991,479.248718 
	C470.948761,487.235870 463.186737,496.376282 455.772217,505.814178 
	C454.385986,507.578735 452.415588,509.693298 453.704559,512.097778 
	C455.025513,514.561829 457.934509,514.615906 460.397064,514.535095 
	C465.549347,514.366028 470.676056,513.709412 475.823395,514.803345 
	C483.879028,516.515381 488.990570,522.327942 488.506012,529.442261 
	C488.194855,529.512146 487.713806,529.741882 487.595001,529.619568 
	C482.343658,524.213867 476.886719,524.059814 470.170563,527.480774 
	C464.805695,530.213440 458.612946,528.459351 453.033051,526.886963 
	C446.577393,525.067810 441.199432,526.049866 435.715912,529.981384 
	C428.032867,535.489685 420.412537,541.251831 411.002747,543.829773 
	C407.072845,544.906494 406.944275,549.128540 405.421234,552.150696 
	C399.087280,547.828735 400.287170,542.444580 410.325012,531.567383 
	C401.716217,533.695496 393.832306,534.821167 385.924225,535.838867 
	C381.714996,536.380554 380.094543,540.978394 377.105316,543.590271 
	C373.454620,536.531921 378.201233,530.708069 393.713776,523.109497 
	C388.271027,520.701416 384.021729,523.702209 379.342712,526.063110 
	C378.385529,521.268250 380.936432,518.708679 383.924164,516.639221 
	C387.296661,514.303406 391.218414,513.642761 395.331207,513.609558 
	C403.640167,513.542603 411.998352,514.601807 420.242401,512.729187 
	C423.162292,512.065979 426.103058,511.436523 429.104218,509.185303 
	C430.963928,508.133148 432.457001,507.637146 433.534943,506.675720 
	C443.509369,497.779266 451.621948,487.224884 459.867279,476.796906 
	C460.785645,475.635406 461.822418,474.183167 461.345917,472.695648 
	C459.026947,465.456451 458.300659,457.716125 454.603912,450.918396 
	C453.536835,448.956299 452.585236,446.670380 449.638611,446.851837 
	C447.160156,450.521210 449.520355,454.907135 447.717438,458.359009 
	C445.576782,459.404999 443.374146,456.068542 441.999329,458.310822 
	C438.595398,463.862335 432.415649,465.584808 427.713226,469.309326 
	C418.728455,476.425598 409.460358,483.186798 400.851837,490.771729 
	C399.667480,491.815247 397.974396,493.012543 398.713623,494.899048 
	C399.421570,496.705627 401.381805,496.674011 403.031128,496.704254 
	C406.685272,496.771240 410.352295,496.550751 413.994537,496.770752 
	C423.081299,497.319550 427.699249,501.172974 429.029694,509.032043 
z"/>
</svg>