<svg xmlns="http://www.w3.org/2000/svg" xmlns:v="https://svgstorm.com"
viewBox = "0 0 2167 1181"
width="2167"
height="1181">
<g fill="None" fill-opacity="0.0" stroke="#FEFEFD" stroke-opacity="1.00" stroke-width="0.3"><path d="
M 0.00 1181.00 
L 2167.00 1181.00
L 2167.00 0.00
L 0.00 0.00
L 0.00 1181.00
M 1414.00 689.00 
C 1408.57 695.36 1402.30 701.61 1396.00 707.00
C 1376.92 723.30 1360.01 741.75 1339.77 755.77 C 1319.53 769.79 1301.38 788.44 1284.23 806.23 C 1267.08 824.02 1249.56 843.68 1238.25 865.25 C 1226.93 886.81 1205.69 918.87 1215.32 943.68 C 1224.96 968.49 1244.65 983.34 1260.25 1004.75 C 1275.85 1026.15 1289.96 1041.07 1309.25 1060.75 C 1328.53 1080.43 1365.47 1085.27 1393.00 1081.00 C 1420.53 1076.73 1454.67 1094.79 1455.00 1125.00
C 1444.25 1124.84 1432.66 1125.22 1422.00 1125.00 C 1411.34 1124.78 1399.36 1125.41 1389.00 1125.00 C 1378.64 1124.59 1365.62 1125.89 1356.00 1125.00 C 1346.38 1124.11 1331.03 1128.73 1327.01 1120.99 C 1323.00 1113.25 1322.29 1105.02 1316.70 1098.30 C 1311.11 1091.58 1307.53 1086.83 1300.25 1081.75 C 1292.97 1076.68 1286.38 1074.55 1277.93 1071.07 C 1269.48 1067.60 1256.47 1069.50 1247.00 1069.00
C 1252.88 1051.61 1235.48 1038.16 1226.25 1024.75 C 1217.01 1011.35 1205.29 999.21 1194.25 986.75 C 1183.21 974.29 1173.63 962.72 1161.25 950.75 C 1148.87 938.78 1136.55 922.95 1137.00 905.00
C 1135.94 899.53 1136.35 893.36 1137.00 888.00
C 1137.23 876.40 1138.18 864.28 1140.00 853.00
C 1117.50 871.73 1107.80 890.50 1095.23 917.23 C 1082.66 943.96 1101.18 974.24 1116.77 996.23 C 1132.36 1018.22 1144.24 1038.40 1161.75 1060.25 C 1179.26 1082.10 1210.21 1097.51 1239.00 1090.00 C 1267.79 1082.49 1301.82 1095.67 1307.00 1125.00
C 1302.11 1128.25 1292.10 1123.55 1286.00 1125.00 C 1279.90 1126.45 1271.70 1124.37 1265.00 1125.00 C 1258.30 1125.63 1249.93 1124.70 1243.00 1125.00 C 1236.07 1125.30 1229.01 1124.87 1222.00 1125.00 C 1214.99 1125.13 1208.10 1124.94 1201.00 1125.00 C 1193.90 1125.06 1186.14 1124.98 1179.00 1125.00 C 1171.86 1125.02 1165.15 1125.00 1158.00 1125.00 C 1150.85 1125.00 1143.14 1125.02 1136.00 1125.00 C 1128.86 1124.99 1122.10 1125.05 1115.00 1125.00 C 1107.90 1124.95 1101.14 1125.11 1094.00 1125.00 C 1086.86 1124.89 1079.14 1125.23 1072.00 1125.00 C 1064.86 1124.77 1058.12 1125.53 1051.00 1125.00 C 1043.88 1124.47 1036.06 1126.12 1029.00 1125.00
C 1027.29 1124.73 1025.88 1123.73 1024.00 1124.00
C 1028.17 1109.27 1034.43 1099.91 1049.23 1092.23 C 1064.03 1084.55 1085.63 1092.92 1103.00 1090.00 C 1120.37 1087.08 1118.24 1065.39 1109.69 1054.31 C 1101.15 1043.22 1094.41 1030.83 1086.70 1019.31 C 1078.98 1007.78 1070.77 997.72 1062.25 986.75 C 1053.73 975.79 1044.54 966.19 1035.75 955.25 C 1026.96 944.30 1016.10 932.56 1015.00 918.00
C 1013.53 910.80 1014.31 902.09 1015.00 895.00
C 1015.00 875.68 1018.02 851.11 994.92 847.08 C 971.83 843.04 953.36 847.19 933.98 852.98 C 914.59 858.76 897.95 861.87 881.92 870.92 C 865.90 879.98 859.79 895.39 846.75 906.75 C 833.71 918.11 825.62 931.55 813.25 943.25 C 800.87 954.94 790.09 966.96 777.75 978.75 C 765.42 990.55 754.45 1001.52 740.92 1011.92 C 727.39 1022.31 714.75 1032.76 699.77 1041.77 C 684.79 1050.78 670.69 1059.33 653.32 1065.32 C 635.96 1071.31 616.42 1077.84 596.93 1079.93 C 577.43 1082.02 550.58 1082.85 531.00 1080.00 C 511.42 1077.16 489.10 1075.05 470.93 1069.07 C 452.76 1063.09 433.83 1061.25 417.33 1052.67 C 400.82 1044.09 384.36 1042.51 371.75 1027.25 C 359.15 1011.99 385.20 998.00 398.03 991.03 C 410.86 984.06 427.97 971.48 441.75 963.75 C 455.52 956.02 470.82 945.59 485.23 937.23 C 499.64 928.87 514.81 919.04 529.25 910.25 C 543.68 901.45 557.89 892.45 572.75 883.75 C 587.60 875.04 601.88 865.74 616.70 856.70 C 631.52 847.66 645.09 838.65 661.08 831.08 C 677.06 823.50 692.77 814.93 709.74 808.74 C 726.71 802.55 744.38 796.63 762.22 791.22 C 780.07 785.81 798.92 780.18 817.22 775.22 C 835.52 770.26 854.34 765.58 873.01 761.01 C 891.68 756.44 911.35 751.47 930.22 747.22 C 949.09 742.97 968.86 738.93 987.67 734.67 C 1006.49 730.42 1026.51 725.57 1045.02 721.02 C 1063.54 716.48 1082.35 711.75 1100.07 706.07 C 1117.79 700.40 1135.57 694.25 1152.07 687.07 C 1168.58 679.90 1183.17 671.88 1198.70 663.70 C 1214.23 655.51 1227.20 645.27 1241.25 635.25 C 1255.29 625.23 1266.38 614.86 1278.25 602.25 C 1290.11 589.64 1301.56 578.10 1310.25 563.25 C 1318.95 548.41 1329.67 535.11 1334.92 517.92 C 1340.18 500.74 1346.82 475.62 1343.02 456.98 C 1339.22 438.33 1335.36 421.22 1324.23 405.77 C 1313.10 390.32 1301.99 382.34 1284.93 374.07 C 1267.86 365.81 1247.11 362.61 1227.00 362.00 C 1206.89 361.39 1183.76 365.92 1165.93 371.93 C 1148.09 377.94 1130.43 381.56 1114.75 390.75 C 1099.07 399.95 1083.08 405.90 1068.30 415.31 C 1053.53 424.71 1041.07 434.22 1027.25 444.25 C 1013.43 454.28 999.61 463.93 989.00 477.00
C 997.62 470.48 1005.85 464.91 1014.70 458.70 C 1023.54 452.48 1031.76 445.70 1041.23 440.23 C 1050.70 434.76 1059.17 428.98 1069.23 424.23 C 1079.29 419.48 1088.75 413.63 1099.25 409.25 C 1109.74 404.86 1119.90 400.65 1131.23 397.23 C 1142.56 393.81 1154.33 389.71 1166.67 387.67 C 1179.02 385.64 1193.04 383.01 1206.00 383.00 C 1218.96 382.99 1236.23 383.27 1248.00 386.00 C 1259.78 388.73 1270.01 392.17 1279.70 398.31 C 1289.38 404.44 1297.02 409.89 1303.92 419.08 C 1310.81 428.28 1313.73 438.86 1316.78 450.22 C 1319.83 461.58 1318.27 480.32 1315.67 491.67 C 1313.07 503.03 1308.84 514.99 1304.25 525.25 C 1299.65 535.51 1294.65 544.33 1288.23 553.23 C 1281.81 562.13 1275.73 570.26 1268.25 578.25 C 1260.76 586.24 1254.62 593.36 1246.30 600.30 C 1237.99 607.25 1230.47 614.48 1221.75 620.75 C 1213.04 627.03 1204.79 632.71 1195.75 638.75 C 1186.72 644.80 1177.03 650.05 1167.31 655.31 C 1157.58 660.56 1148.27 665.46 1137.98 669.98 C 1127.68 674.49 1117.29 679.81 1106.32 683.32 C 1095.35 686.83 1085.50 692.13 1073.93 694.93 C 1062.36 697.72 1050.52 701.64 1038.78 704.78 C 1027.04 707.91 1013.86 709.90 1002.00 713.00 C 990.14 716.10 978.01 718.26 965.98 720.98 C 953.94 723.70 940.94 725.97 928.99 728.99 C 917.04 732.02 905.17 734.19 893.33 737.33 C 881.49 740.47 869.62 743.99 857.78 746.78 C 845.94 749.56 834.79 753.37 822.98 755.98 C 811.16 758.58 799.40 762.61 787.78 765.78 C 776.16 768.94 764.58 771.29 753.32 775.32 C 742.07 779.36 730.29 782.18 718.98 785.98 C 707.66 789.77 696.62 792.55 685.31 796.31 C 674.00 800.06 662.36 803.33 650.98 806.98 C 639.59 810.62 629.30 814.41 617.78 817.78 C 606.26 821.15 595.47 825.33 583.78 828.78 C 572.08 832.23 561.28 835.33 549.33 839.33 C 537.37 843.32 528.70 845.35 515.93 849.93 C 503.15 854.50 494.65 854.19 480.00 859.00 C 465.34 863.80 460.58 848.77 470.25 839.25 C 479.93 829.74 483.13 823.92 492.75 816.75 C 502.37 809.58 508.76 804.66 518.25 798.25 C 527.73 791.84 535.99 786.25 545.25 780.25 C 554.50 774.25 563.01 769.03 572.25 763.25 C 581.49 757.46 590.98 751.93 600.08 746.08 C 609.17 740.22 617.97 734.92 626.75 728.75 C 635.54 722.58 645.27 717.47 654.08 711.08 C 662.89 704.70 672.08 698.79 681.08 693.08 C 690.08 687.37 698.00 680.78 706.75 674.75 C 715.51 668.73 724.63 662.55 733.08 656.08 C 741.54 649.62 749.45 643.10 758.08 637.08 C 766.71 631.06 774.99 623.76 783.25 617.25 C 791.51 610.73 799.09 603.89 807.25 597.25 C 815.40 590.61 824.07 584.12 831.75 576.75 C 839.43 569.39 847.89 563.77 855.70 556.70 C 863.50 549.62 871.04 541.89 878.75 534.75 C 886.47 527.61 894.32 521.32 901.75 513.75 C 909.19 506.18 917.34 499.35 924.75 491.75 C 932.17 484.15 940.12 476.93 947.00 469.00
C 953.61 461.26 961.32 453.57 969.00 447.00
C 992.27 427.11 1010.72 406.22 1035.22 388.22 C 1059.73 370.23 1084.09 352.06 1110.74 337.74 C 1137.40 323.42 1169.22 316.25 1191.25 293.25 C 1213.28 270.25 1220.58 238.92 1235.77 211.77 C 1250.97 184.62 1260.78 156.15 1281.25 131.25 C 1301.73 106.36 1319.60 89.36 1349.22 74.22 C 1378.85 59.09 1421.08 56.01 1455.22 59.78 C 1489.36 63.55 1513.07 87.74 1546.00 94.00 C 1578.93 100.26 1624.39 97.90 1654.69 111.31 C 1685.00 124.72 1713.58 139.37 1717.00 175.00
C 1684.00 161.71 1643.70 177.40 1610.33 182.33 C 1576.96 187.26 1545.46 194.59 1527.23 225.23 C 1509.00 255.87 1516.79 297.63 1525.00 331.00 C 1533.21 364.38 1542.23 403.92 1543.00 439.00 C 1543.77 474.08 1533.44 512.90 1521.22 543.22 C 1509.00 573.55 1493.00 597.04 1474.08 622.08 C 1455.16 647.12 1435.49 665.75 1414.00 689.00 Z"/>
</g>
<g fill="None" fill-opacity="0.0" stroke="#000000" stroke-opacity="1.00" stroke-width="0.3"><path d="
M 969.00 447.00 
C 961.75 454.25 954.20 461.80 947.00 469.00
C 940.12 476.93 932.17 484.15 924.75 491.75 C 917.34 499.35 909.19 506.18 901.75 513.75 C 894.32 521.32 886.47 527.61 878.75 534.75 C 871.04 541.89 863.50 549.62 855.70 556.70 C 847.89 563.77 839.43 569.39 831.75 576.75 C 824.07 584.12 815.40 590.61 807.25 597.25 C 799.09 603.89 791.51 610.73 783.25 617.25 C 774.99 623.76 766.71 631.06 758.08 637.08 C 749.45 643.10 741.54 649.62 733.08 656.08 C 724.63 662.55 715.51 668.73 706.75 674.75 C 698.00 680.78 690.08 687.37 681.08 693.08 C 672.08 698.79 662.89 704.70 654.08 711.08 C 645.27 717.47 635.54 722.58 626.75 728.75 C 617.97 734.92 609.17 740.22 600.08 746.08 C 590.98 751.93 581.49 757.46 572.25 763.25 C 563.01 769.03 554.50 774.25 545.25 780.25 C 535.99 786.25 527.73 791.84 518.25 798.25 C 508.76 804.66 502.37 809.58 492.75 816.75 C 483.13 823.92 479.93 829.74 470.25 839.25 C 460.58 848.77 465.34 863.80 480.00 859.00 C 494.65 854.19 503.15 854.50 515.93 849.93 C 528.70 845.35 537.37 843.32 549.33 839.33 C 561.28 835.33 572.08 832.23 583.78 828.78 C 595.47 825.33 606.26 821.15 617.78 817.78 C 629.30 814.41 639.59 810.62 650.98 806.98 C 662.36 803.33 674.00 800.06 685.31 796.31 C 696.62 792.55 707.66 789.77 718.98 785.98 C 730.29 782.18 742.07 779.36 753.32 775.32 C 764.58 771.29 776.16 768.94 787.78 765.78 C 799.40 762.61 811.16 758.58 822.98 755.98 C 834.79 753.37 845.94 749.56 857.78 746.78 C 869.62 743.99 881.49 740.47 893.33 737.33 C 905.17 734.19 917.04 732.02 928.99 728.99 C 940.94 725.97 953.94 723.70 965.98 720.98 C 978.01 718.26 990.14 716.10 1002.00 713.00 C 1013.86 709.90 1027.04 707.91 1038.78 704.78 C 1050.52 701.64 1062.36 697.72 1073.93 694.93 C 1085.50 692.13 1095.35 686.83 1106.32 683.32 C 1117.29 679.81 1127.68 674.49 1137.98 669.98 C 1148.27 665.46 1157.58 660.56 1167.31 655.31 C 1177.03 650.05 1186.72 644.80 1195.75 638.75 C 1204.79 632.71 1213.04 627.03 1221.75 620.75 C 1230.47 614.48 1237.99 607.25 1246.30 600.30 C 1254.62 593.36 1260.76 586.24 1268.25 578.25 C 1275.73 570.26 1281.81 562.13 1288.23 553.23 C 1294.65 544.33 1299.65 535.51 1304.25 525.25 C 1308.84 514.99 1313.07 503.03 1315.67 491.67 C 1318.27 480.32 1319.83 461.58 1316.78 450.22 C 1313.73 438.86 1310.81 428.28 1303.92 419.08 C 1297.02 409.89 1289.38 404.44 1279.70 398.31 C 1270.01 392.17 1259.78 388.73 1248.00 386.00 C 1236.23 383.27 1218.96 382.99 1206.00 383.00 C 1193.04 383.01 1179.02 385.64 1166.67 387.67 C 1154.33 389.71 1142.56 393.81 1131.23 397.23 C 1119.90 400.65 1109.74 404.86 1099.25 409.25 C 1088.75 413.63 1079.29 419.48 1069.23 424.23 C 1059.17 428.98 1050.70 434.76 1041.23 440.23 C 1031.76 445.70 1023.54 452.48 1014.70 458.70 C 1005.85 464.91 997.62 470.48 989.00 477.00
C 999.61 463.93 1013.43 454.28 1027.25 444.25 C 1041.07 434.22 1053.53 424.71 1068.30 415.31 C 1083.08 405.90 1099.07 399.95 1114.75 390.75 C 1130.43 381.56 1148.09 377.94 1165.93 371.93 C 1183.76 365.92 1206.89 361.39 1227.00 362.00 C 1247.11 362.61 1267.86 365.81 1284.93 374.07 C 1301.99 382.34 1313.10 390.32 1324.23 405.77 C 1335.36 421.22 1339.22 438.33 1343.02 456.98 C 1346.82 475.62 1340.18 500.74 1334.92 517.92 C 1329.67 535.11 1318.95 548.41 1310.25 563.25 C 1301.56 578.10 1290.11 589.64 1278.25 602.25 C 1266.38 614.86 1255.29 625.23 1241.25 635.25 C 1227.20 645.27 1214.23 655.51 1198.70 663.70 C 1183.17 671.88 1168.58 679.90 1152.07 687.07 C 1135.57 694.25 1117.79 700.40 1100.07 706.07 C 1082.35 711.75 1063.54 716.48 1045.02 721.02 C 1026.51 725.57 1006.49 730.42 987.67 734.67 C 968.86 738.93 949.09 742.97 930.22 747.22 C 911.35 751.47 891.68 756.44 873.01 761.01 C 854.34 765.58 835.52 770.26 817.22 775.22 C 798.92 780.18 780.07 785.81 762.22 791.22 C 744.38 796.63 726.71 802.55 709.74 808.74 C 692.77 814.93 677.06 823.50 661.08 831.08 C 645.09 838.65 631.52 847.66 616.70 856.70 C 601.88 865.74 587.60 875.04 572.75 883.75 C 557.89 892.45 543.68 901.45 529.25 910.25 C 514.81 919.04 499.64 928.87 485.23 937.23 C 470.82 945.59 455.52 956.02 441.75 963.75 C 427.97 971.48 410.86 984.06 398.03 991.03 C 385.20 998.00 359.15 1011.99 371.75 1027.25 C 384.36 1042.51 400.82 1044.09 417.33 1052.67 C 433.83 1061.25 452.76 1063.09 470.93 1069.07 C 489.10 1075.05 511.42 1077.16 531.00 1080.00 C 550.58 1082.85 577.43 1082.02 596.93 1079.93 C 616.42 1077.84 635.96 1071.31 653.32 1065.32 C 670.69 1059.33 684.79 1050.78 699.77 1041.77 C 714.75 1032.76 727.39 1022.31 740.92 1011.92 C 754.45 1001.52 765.42 990.55 777.75 978.75 C 790.09 966.96 800.87 954.94 813.25 943.25 C 825.62 931.55 833.71 918.11 846.75 906.75 C 859.79 895.39 865.90 879.98 881.92 870.92 C 897.95 861.87 914.59 858.76 933.98 852.98 C 953.36 847.19 971.83 843.04 994.92 847.08 C 1018.02 851.11 1015.00 875.68 1015.00 895.00
C 1015.00 902.57 1014.34 910.47 1015.00 918.00
C 1016.10 932.56 1026.96 944.30 1035.75 955.25 C 1044.54 966.19 1053.73 975.79 1062.25 986.75 C 1070.77 997.72 1078.98 1007.78 1086.70 1019.31 C 1094.41 1030.83 1101.15 1043.22 1109.69 1054.31 C 1118.24 1065.39 1120.37 1087.08 1103.00 1090.00 C 1085.63 1092.92 1064.03 1084.55 1049.23 1092.23 C 1034.43 1099.91 1028.17 1109.27 1024.00 1124.00
C 1025.88 1123.73 1027.29 1124.73 1029.00 1125.00
C 1058.71 1126.88 1090.35 1122.36 1121.00 1124.00 C 1151.65 1125.64 1183.23 1122.94 1214.00 1124.00 C 1244.77 1125.06 1277.04 1122.38 1307.00 1125.00
C 1301.82 1095.67 1267.79 1082.49 1239.00 1090.00 C 1210.21 1097.51 1179.26 1082.10 1161.75 1060.25 C 1144.24 1038.40 1132.36 1018.22 1116.77 996.23 C 1101.18 974.24 1082.66 943.96 1095.23 917.23 C 1107.80 890.50 1117.50 871.73 1140.00 853.00
C 1138.18 864.28 1137.23 876.40 1137.00 888.00
C 1136.89 893.58 1136.56 899.44 1137.00 905.00
C 1136.55 922.95 1148.87 938.78 1161.25 950.75 C 1173.63 962.72 1183.21 974.29 1194.25 986.75 C 1205.29 999.21 1217.01 1011.35 1226.25 1024.75 C 1235.48 1038.16 1252.88 1051.61 1247.00 1069.00
C 1256.47 1069.50 1269.48 1067.60 1277.93 1071.07 C 1286.38 1074.55 1292.97 1076.68 1300.25 1081.75 C 1307.53 1086.83 1311.11 1091.58 1316.70 1098.30 C 1322.29 1105.02 1323.00 1113.25 1327.01 1120.99 C 1331.03 1128.73 1346.38 1124.11 1356.00 1125.00 C 1365.62 1125.89 1378.64 1124.59 1389.00 1125.00 C 1399.36 1125.41 1411.34 1124.78 1422.00 1125.00 C 1432.66 1125.22 1444.25 1124.84 1455.00 1125.00
C 1454.67 1094.79 1420.53 1076.73 1393.00 1081.00 C 1365.47 1085.27 1328.53 1080.43 1309.25 1060.75 C 1289.96 1041.07 1275.85 1026.15 1260.25 1004.75 C 1244.65 983.34 1224.96 968.49 1215.32 943.68 C 1205.69 918.87 1226.93 886.81 1238.25 865.25 C 1249.56 843.68 1267.08 824.02 1284.23 806.23 C 1301.38 788.44 1319.53 769.79 1339.77 755.77 C 1360.01 741.75 1376.92 723.30 1396.00 707.00
C 1401.92 701.08 1408.13 694.87 1414.00 689.00
C 1435.49 665.75 1455.16 647.12 1474.08 622.08 C 1493.00 597.04 1509.00 573.55 1521.22 543.22 C 1533.44 512.90 1543.77 474.08 1543.00 439.00 C 1542.23 403.92 1533.21 364.38 1525.00 331.00 C 1516.79 297.63 1509.00 255.87 1527.23 225.23 C 1545.46 194.59 1576.96 187.26 1610.33 182.33 C 1643.70 177.40 1684.00 161.71 1717.00 175.00
C 1713.58 139.37 1685.00 124.72 1654.69 111.31 C 1624.39 97.90 1578.93 100.26 1546.00 94.00 C 1513.07 87.74 1489.36 63.55 1455.22 59.78 C 1421.08 56.01 1378.85 59.09 1349.22 74.22 C 1319.60 89.36 1301.73 106.36 1281.25 131.25 C 1260.78 156.15 1250.97 184.62 1235.77 211.77 C 1220.58 238.92 1213.28 270.25 1191.25 293.25 C 1169.22 316.25 1137.40 323.42 1110.74 337.74 C 1084.09 352.06 1059.73 370.23 1035.22 388.22 C 1010.72 406.22 992.27 427.11 969.00 447.00 Z"/>
</g>
<g fill="None" fill-opacity="0.0" stroke="#74746F" stroke-opacity="1.00" stroke-width="0.3"><path d="
M 947.00 469.00 
C 954.20 461.80 961.75 454.25 969.00 447.00
C 961.32 453.57 953.61 461.26 947.00 469.00 Z"/>
</g>
<g fill="None" fill-opacity="0.0" stroke="#7B7C7A" stroke-opacity="1.00" stroke-width="0.3"><path d="
M 1396.00 707.00 
C 1402.30 701.61 1408.57 695.36 1414.00 689.00
C 1408.13 694.87 1401.92 701.08 1396.00 707.00 Z"/>
</g>
<g fill="None" fill-opacity="0.0" stroke="#73766E" stroke-opacity="1.00" stroke-width="0.3"><path d="
M 1137.00 905.00 
C 1136.56 899.44 1136.89 893.58 1137.00 888.00
C 1136.35 893.36 1135.94 899.53 1137.00 905.00 Z"/>
</g>
<g fill="None" fill-opacity="0.0" stroke="#6C6E6A" stroke-opacity="1.00" stroke-width="0.3"><path d="
M 1015.00 918.00 
C 1014.34 910.47 1015.00 902.57 1015.00 895.00
C 1014.31 902.09 1013.53 910.80 1015.00 918.00 Z"/>
</g>
<g fill="None" fill-opacity="0.0" stroke="#0C140A" stroke-opacity="1.00" stroke-width="0.3"><path d="
M 1029.00 1125.00 
C 1036.06 1126.12 1043.88 1124.47 1051.00 1125.00 C 1058.12 1125.53 1064.86 1124.77 1072.00 1125.00 C 1079.14 1125.23 1086.86 1124.89 1094.00 1125.00 C 1101.14 1125.11 1107.90 1124.95 1115.00 1125.00 C 1122.10 1125.05 1128.86 1124.99 1136.00 1125.00 C 1143.14 1125.02 1150.85 1125.00 1158.00 1125.00 C 1165.15 1125.00 1171.86 1125.02 1179.00 1125.00 C 1186.14 1124.98 1193.90 1125.06 1201.00 1125.00 C 1208.10 1124.94 1214.99 1125.13 1222.00 1125.00 C 1229.01 1124.87 1236.07 1125.30 1243.00 1125.00 C 1249.93 1124.70 1258.30 1125.63 1265.00 1125.00 C 1271.70 1124.37 1279.90 1126.45 1286.00 1125.00 C 1292.10 1123.55 1302.11 1128.25 1307.00 1125.00
C 1277.04 1122.38 1244.77 1125.06 1214.00 1124.00 C 1183.23 1122.94 1151.65 1125.64 1121.00 1124.00 C 1090.35 1122.36 1058.71 1126.88 1029.00 1125.00 Z"/>
</g>
<g fill="#FEFEFD" fill-opacity="1.00" stroke="None">
<path d="
M 0.00 1181.00 
L 2167.00 1181.00
L 2167.00 0.00
L 0.00 0.00
L 0.00 1181.00
M 1414.00 689.00 
C 1408.57 695.36 1402.30 701.61 1396.00 707.00
C 1376.92 723.30 1360.01 741.75 1339.77 755.77 C 1319.53 769.79 1301.38 788.44 1284.23 806.23 C 1267.08 824.02 1249.56 843.68 1238.25 865.25 C 1226.93 886.81 1205.69 918.87 1215.32 943.68 C 1224.96 968.49 1244.65 983.34 1260.25 1004.75 C 1275.85 1026.15 1289.96 1041.07 1309.25 1060.75 C 1328.53 1080.43 1365.47 1085.27 1393.00 1081.00 C 1420.53 1076.73 1454.67 1094.79 1455.00 1125.00
C 1444.25 1124.84 1432.66 1125.22 1422.00 1125.00 C 1411.34 1124.78 1399.36 1125.41 1389.00 1125.00 C 1378.64 1124.59 1365.62 1125.89 1356.00 1125.00 C 1346.38 1124.11 1331.03 1128.73 1327.01 1120.99 C 1323.00 1113.25 1322.29 1105.02 1316.70 1098.30 C 1311.11 1091.58 1307.53 1086.83 1300.25 1081.75 C 1292.97 1076.68 1286.38 1074.55 1277.93 1071.07 C 1269.48 1067.60 1256.47 1069.50 1247.00 1069.00
C 1252.88 1051.61 1235.48 1038.16 1226.25 1024.75 C 1217.01 1011.35 1205.29 999.21 1194.25 986.75 C 1183.21 974.29 1173.63 962.72 1161.25 950.75 C 1148.87 938.78 1136.55 922.95 1137.00 905.00
C 1135.94 899.53 1136.35 893.36 1137.00 888.00
C 1137.23 876.40 1138.18 864.28 1140.00 853.00
C 1117.50 871.73 1107.80 890.50 1095.23 917.23 C 1082.66 943.96 1101.18 974.24 1116.77 996.23 C 1132.36 1018.22 1144.24 1038.40 1161.75 1060.25 C 1179.26 1082.10 1210.21 1097.51 1239.00 1090.00 C 1267.79 1082.49 1301.82 1095.67 1307.00 1125.00
C 1302.11 1128.25 1292.10 1123.55 1286.00 1125.00 C 1279.90 1126.45 1271.70 1124.37 1265.00 1125.00 C 1258.30 1125.63 1249.93 1124.70 1243.00 1125.00 C 1236.07 1125.30 1229.01 1124.87 1222.00 1125.00 C 1214.99 1125.13 1208.10 1124.94 1201.00 1125.00 C 1193.90 1125.06 1186.14 1124.98 1179.00 1125.00 C 1171.86 1125.02 1165.15 1125.00 1158.00 1125.00 C 1150.85 1125.00 1143.14 1125.02 1136.00 1125.00 C 1128.86 1124.99 1122.10 1125.05 1115.00 1125.00 C 1107.90 1124.95 1101.14 1125.11 1094.00 1125.00 C 1086.86 1124.89 1079.14 1125.23 1072.00 1125.00 C 1064.86 1124.77 1058.12 1125.53 1051.00 1125.00 C 1043.88 1124.47 1036.06 1126.12 1029.00 1125.00
C 1027.29 1124.73 1025.88 1123.73 1024.00 1124.00
C 1028.17 1109.27 1034.43 1099.91 1049.23 1092.23 C 1064.03 1084.55 1085.63 1092.92 1103.00 1090.00 C 1120.37 1087.08 1118.24 1065.39 1109.69 1054.31 C 1101.15 1043.22 1094.41 1030.83 1086.70 1019.31 C 1078.98 1007.78 1070.77 997.72 1062.25 986.75 C 1053.73 975.79 1044.54 966.19 1035.75 955.25 C 1026.96 944.30 1016.10 932.56 1015.00 918.00
C 1013.53 910.80 1014.31 902.09 1015.00 895.00
C 1015.00 875.68 1018.02 851.11 994.92 847.08 C 971.83 843.04 953.36 847.19 933.98 852.98 C 914.59 858.76 897.95 861.87 881.92 870.92 C 865.90 879.98 859.79 895.39 846.75 906.75 C 833.71 918.11 825.62 931.55 813.25 943.25 C 800.87 954.94 790.09 966.96 777.75 978.75 C 765.42 990.55 754.45 1001.52 740.92 1011.92 C 727.39 1022.31 714.75 1032.76 699.77 1041.77 C 684.79 1050.78 670.69 1059.33 653.32 1065.32 C 635.96 1071.31 616.42 1077.84 596.93 1079.93 C 577.43 1082.02 550.58 1082.85 531.00 1080.00 C 511.42 1077.16 489.10 1075.05 470.93 1069.07 C 452.76 1063.09 433.83 1061.25 417.33 1052.67 C 400.82 1044.09 384.36 1042.51 371.75 1027.25 C 359.15 1011.99 385.20 998.00 398.03 991.03 C 410.86 984.06 427.97 971.48 441.75 963.75 C 455.52 956.02 470.82 945.59 485.23 937.23 C 499.64 928.87 514.81 919.04 529.25 910.25 C 543.68 901.45 557.89 892.45 572.75 883.75 C 587.60 875.04 601.88 865.74 616.70 856.70 C 631.52 847.66 645.09 838.65 661.08 831.08 C 677.06 823.50 692.77 814.93 709.74 808.74 C 726.71 802.55 744.38 796.63 762.22 791.22 C 780.07 785.81 798.92 780.18 817.22 775.22 C 835.52 770.26 854.34 765.58 873.01 761.01 C 891.68 756.44 911.35 751.47 930.22 747.22 C 949.09 742.97 968.86 738.93 987.67 734.67 C 1006.49 730.42 1026.51 725.57 1045.02 721.02 C 1063.54 716.48 1082.35 711.75 1100.07 706.07 C 1117.79 700.40 1135.57 694.25 1152.07 687.07 C 1168.58 679.90 1183.17 671.88 1198.70 663.70 C 1214.23 655.51 1227.20 645.27 1241.25 635.25 C 1255.29 625.23 1266.38 614.86 1278.25 602.25 C 1290.11 589.64 1301.56 578.10 1310.25 563.25 C 1318.95 548.41 1329.67 535.11 1334.92 517.92 C 1340.18 500.74 1346.82 475.62 1343.02 456.98 C 1339.22 438.33 1335.36 421.22 1324.23 405.77 C 1313.10 390.32 1301.99 382.34 1284.93 374.07 C 1267.86 365.81 1247.11 362.61 1227.00 362.00 C 1206.89 361.39 1183.76 365.92 1165.93 371.93 C 1148.09 377.94 1130.43 381.56 1114.75 390.75 C 1099.07 399.95 1083.08 405.90 1068.30 415.31 C 1053.53 424.71 1041.07 434.22 1027.25 444.25 C 1013.43 454.28 999.61 463.93 989.00 477.00
C 997.62 470.48 1005.85 464.91 1014.70 458.70 C 1023.54 452.48 1031.76 445.70 1041.23 440.23 C 1050.70 434.76 1059.17 428.98 1069.23 424.23 C 1079.29 419.48 1088.75 413.63 1099.25 409.25 C 1109.74 404.86 1119.90 400.65 1131.23 397.23 C 1142.56 393.81 1154.33 389.71 1166.67 387.67 C 1179.02 385.64 1193.04 383.01 1206.00 383.00 C 1218.96 382.99 1236.23 383.27 1248.00 386.00 C 1259.78 388.73 1270.01 392.17 1279.70 398.31 C 1289.38 404.44 1297.02 409.89 1303.92 419.08 C 1310.81 428.28 1313.73 438.86 1316.78 450.22 C 1319.83 461.58 1318.27 480.32 1315.67 491.67 C 1313.07 503.03 1308.84 514.99 1304.25 525.25 C 1299.65 535.51 1294.65 544.33 1288.23 553.23 C 1281.81 562.13 1275.73 570.26 1268.25 578.25 C 1260.76 586.24 1254.62 593.36 1246.30 600.30 C 1237.99 607.25 1230.47 614.48 1221.75 620.75 C 1213.04 627.03 1204.79 632.71 1195.75 638.75 C 1186.72 644.80 1177.03 650.05 1167.31 655.31 C 1157.58 660.56 1148.27 665.46 1137.98 669.98 C 1127.68 674.49 1117.29 679.81 1106.32 683.32 C 1095.35 686.83 1085.50 692.13 1073.93 694.93 C 1062.36 697.72 1050.52 701.64 1038.78 704.78 C 1027.04 707.91 1013.86 709.90 1002.00 713.00 C 990.14 716.10 978.01 718.26 965.98 720.98 C 953.94 723.70 940.94 725.97 928.99 728.99 C 917.04 732.02 905.17 734.19 893.33 737.33 C 881.49 740.47 869.62 743.99 857.78 746.78 C 845.94 749.56 834.79 753.37 822.98 755.98 C 811.16 758.58 799.40 762.61 787.78 765.78 C 776.16 768.94 764.58 771.29 753.32 775.32 C 742.07 779.36 730.29 782.18 718.98 785.98 C 707.66 789.77 696.62 792.55 685.31 796.31 C 674.00 800.06 662.36 803.33 650.98 806.98 C 639.59 810.62 629.30 814.41 617.78 817.78 C 606.26 821.15 595.47 825.33 583.78 828.78 C 572.08 832.23 561.28 835.33 549.33 839.33 C 537.37 843.32 528.70 845.35 515.93 849.93 C 503.15 854.50 494.65 854.19 480.00 859.00 C 465.34 863.80 460.58 848.77 470.25 839.25 C 479.93 829.74 483.13 823.92 492.75 816.75 C 502.37 809.58 508.76 804.66 518.25 798.25 C 527.73 791.84 535.99 786.25 545.25 780.25 C 554.50 774.25 563.01 769.03 572.25 763.25 C 581.49 757.46 590.98 751.93 600.08 746.08 C 609.17 740.22 617.97 734.92 626.75 728.75 C 635.54 722.58 645.27 717.47 654.08 711.08 C 662.89 704.70 672.08 698.79 681.08 693.08 C 690.08 687.37 698.00 680.78 706.75 674.75 C 715.51 668.73 724.63 662.55 733.08 656.08 C 741.54 649.62 749.45 643.10 758.08 637.08 C 766.71 631.06 774.99 623.76 783.25 617.25 C 791.51 610.73 799.09 603.89 807.25 597.25 C 815.40 590.61 824.07 584.12 831.75 576.75 C 839.43 569.39 847.89 563.77 855.70 556.70 C 863.50 549.62 871.04 541.89 878.75 534.75 C 886.47 527.61 894.32 521.32 901.75 513.75 C 909.19 506.18 917.34 499.35 924.75 491.75 C 932.17 484.15 940.12 476.93 947.00 469.00
C 953.61 461.26 961.32 453.57 969.00 447.00
C 992.27 427.11 1010.72 406.22 1035.22 388.22 C 1059.73 370.23 1084.09 352.06 1110.74 337.74 C 1137.40 323.42 1169.22 316.25 1191.25 293.25 C 1213.28 270.25 1220.58 238.92 1235.77 211.77 C 1250.97 184.62 1260.78 156.15 1281.25 131.25 C 1301.73 106.36 1319.60 89.36 1349.22 74.22 C 1378.85 59.09 1421.08 56.01 1455.22 59.78 C 1489.36 63.55 1513.07 87.74 1546.00 94.00 C 1578.93 100.26 1624.39 97.90 1654.69 111.31 C 1685.00 124.72 1713.58 139.37 1717.00 175.00
C 1684.00 161.71 1643.70 177.40 1610.33 182.33 C 1576.96 187.26 1545.46 194.59 1527.23 225.23 C 1509.00 255.87 1516.79 297.63 1525.00 331.00 C 1533.21 364.38 1542.23 403.92 1543.00 439.00 C 1543.77 474.08 1533.44 512.90 1521.22 543.22 C 1509.00 573.55 1493.00 597.04 1474.08 622.08 C 1455.16 647.12 1435.49 665.75 1414.00 689.00 Z"/>
</g>
<g fill="#000000" fill-opacity="1.00" stroke="None">
<path d="
M 969.00 447.00 
C 961.75 454.25 954.20 461.80 947.00 469.00
C 940.12 476.93 932.17 484.15 924.75 491.75 C 917.34 499.35 909.19 506.18 901.75 513.75 C 894.32 521.32 886.47 527.61 878.75 534.75 C 871.04 541.89 863.50 549.62 855.70 556.70 C 847.89 563.77 839.43 569.39 831.75 576.75 C 824.07 584.12 815.40 590.61 807.25 597.25 C 799.09 603.89 791.51 610.73 783.25 617.25 C 774.99 623.76 766.71 631.06 758.08 637.08 C 749.45 643.10 741.54 649.62 733.08 656.08 C 724.63 662.55 715.51 668.73 706.75 674.75 C 698.00 680.78 690.08 687.37 681.08 693.08 C 672.08 698.79 662.89 704.70 654.08 711.08 C 645.27 717.47 635.54 722.58 626.75 728.75 C 617.97 734.92 609.17 740.22 600.08 746.08 C 590.98 751.93 581.49 757.46 572.25 763.25 C 563.01 769.03 554.50 774.25 545.25 780.25 C 535.99 786.25 527.73 791.84 518.25 798.25 C 508.76 804.66 502.37 809.58 492.75 816.75 C 483.13 823.92 479.93 829.74 470.25 839.25 C 460.58 848.77 465.34 863.80 480.00 859.00 C 494.65 854.19 503.15 854.50 515.93 849.93 C 528.70 845.35 537.37 843.32 549.33 839.33 C 561.28 835.33 572.08 832.23 583.78 828.78 C 595.47 825.33 606.26 821.15 617.78 817.78 C 629.30 814.41 639.59 810.62 650.98 806.98 C 662.36 803.33 674.00 800.06 685.31 796.31 C 696.62 792.55 707.66 789.77 718.98 785.98 C 730.29 782.18 742.07 779.36 753.32 775.32 C 764.58 771.29 776.16 768.94 787.78 765.78 C 799.40 762.61 811.16 758.58 822.98 755.98 C 834.79 753.37 845.94 749.56 857.78 746.78 C 869.62 743.99 881.49 740.47 893.33 737.33 C 905.17 734.19 917.04 732.02 928.99 728.99 C 940.94 725.97 953.94 723.70 965.98 720.98 C 978.01 718.26 990.14 716.10 1002.00 713.00 C 1013.86 709.90 1027.04 707.91 1038.78 704.78 C 1050.52 701.64 1062.36 697.72 1073.93 694.93 C 1085.50 692.13 1095.35 686.83 1106.32 683.32 C 1117.29 679.81 1127.68 674.49 1137.98 669.98 C 1148.27 665.46 1157.58 660.56 1167.31 655.31 C 1177.03 650.05 1186.72 644.80 1195.75 638.75 C 1204.79 632.71 1213.04 627.03 1221.75 620.75 C 1230.47 614.48 1237.99 607.25 1246.30 600.30 C 1254.62 593.36 1260.76 586.24 1268.25 578.25 C 1275.73 570.26 1281.81 562.13 1288.23 553.23 C 1294.65 544.33 1299.65 535.51 1304.25 525.25 C 1308.84 514.99 1313.07 503.03 1315.67 491.67 C 1318.27 480.32 1319.83 461.58 1316.78 450.22 C 1313.73 438.86 1310.81 428.28 1303.92 419.08 C 1297.02 409.89 1289.38 404.44 1279.70 398.31 C 1270.01 392.17 1259.78 388.73 1248.00 386.00 C 1236.23 383.27 1218.96 382.99 1206.00 383.00 C 1193.04 383.01 1179.02 385.64 1166.67 387.67 C 1154.33 389.71 1142.56 393.81 1131.23 397.23 C 1119.90 400.65 1109.74 404.86 1099.25 409.25 C 1088.75 413.63 1079.29 419.48 1069.23 424.23 C 1059.17 428.98 1050.70 434.76 1041.23 440.23 C 1031.76 445.70 1023.54 452.48 1014.70 458.70 C 1005.85 464.91 997.62 470.48 989.00 477.00
C 999.61 463.93 1013.43 454.28 1027.25 444.25 C 1041.07 434.22 1053.53 424.71 1068.30 415.31 C 1083.08 405.90 1099.07 399.95 1114.75 390.75 C 1130.43 381.56 1148.09 377.94 1165.93 371.93 C 1183.76 365.92 1206.89 361.39 1227.00 362.00 C 1247.11 362.61 1267.86 365.81 1284.93 374.07 C 1301.99 382.34 1313.10 390.32 1324.23 405.77 C 1335.36 421.22 1339.22 438.33 1343.02 456.98 C 1346.82 475.62 1340.18 500.74 1334.92 517.92 C 1329.67 535.11 1318.95 548.41 1310.25 563.25 C 1301.56 578.10 1290.11 589.64 1278.25 602.25 C 1266.38 614.86 1255.29 625.23 1241.25 635.25 C 1227.20 645.27 1214.23 655.51 1198.70 663.70 C 1183.17 671.88 1168.58 679.90 1152.07 687.07 C 1135.57 694.25 1117.79 700.40 1100.07 706.07 C 1082.35 711.75 1063.54 716.48 1045.02 721.02 C 1026.51 725.57 1006.49 730.42 987.67 734.67 C 968.86 738.93 949.09 742.97 930.22 747.22 C 911.35 751.47 891.68 756.44 873.01 761.01 C 854.34 765.58 835.52 770.26 817.22 775.22 C 798.92 780.18 780.07 785.81 762.22 791.22 C 744.38 796.63 726.71 802.55 709.74 808.74 C 692.77 814.93 677.06 823.50 661.08 831.08 C 645.09 838.65 631.52 847.66 616.70 856.70 C 601.88 865.74 587.60 875.04 572.75 883.75 C 557.89 892.45 543.68 901.45 529.25 910.25 C 514.81 919.04 499.64 928.87 485.23 937.23 C 470.82 945.59 455.52 956.02 441.75 963.75 C 427.97 971.48 410.86 984.06 398.03 991.03 C 385.20 998.00 359.15 1011.99 371.75 1027.25 C 384.36 1042.51 400.82 1044.09 417.33 1052.67 C 433.83 1061.25 452.76 1063.09 470.93 1069.07 C 489.10 1075.05 511.42 1077.16 531.00 1080.00 C 550.58 1082.85 577.43 1082.02 596.93 1079.93 C 616.42 1077.84 635.96 1071.31 653.32 1065.32 C 670.69 1059.33 684.79 1050.78 699.77 1041.77 C 714.75 1032.76 727.39 1022.31 740.92 1011.92 C 754.45 1001.52 765.42 990.55 777.75 978.75 C 790.09 966.96 800.87 954.94 813.25 943.25 C 825.62 931.55 833.71 918.11 846.75 906.75 C 859.79 895.39 865.90 879.98 881.92 870.92 C 897.95 861.87 914.59 858.76 933.98 852.98 C 953.36 847.19 971.83 843.04 994.92 847.08 C 1018.02 851.11 1015.00 875.68 1015.00 895.00
C 1015.00 902.57 1014.34 910.47 1015.00 918.00
C 1016.10 932.56 1026.96 944.30 1035.75 955.25 C 1044.54 966.19 1053.73 975.79 1062.25 986.75 C 1070.77 997.72 1078.98 1007.78 1086.70 1019.31 C 1094.41 1030.83 1101.15 1043.22 1109.69 1054.31 C 1118.24 1065.39 1120.37 1087.08 1103.00 1090.00 C 1085.63 1092.92 1064.03 1084.55 1049.23 1092.23 C 1034.43 1099.91 1028.17 1109.27 1024.00 1124.00
C 1025.88 1123.73 1027.29 1124.73 1029.00 1125.00
C 1058.71 1126.88 1090.35 1122.36 1121.00 1124.00 C 1151.65 1125.64 1183.23 1122.94 1214.00 1124.00 C 1244.77 1125.06 1277.04 1122.38 1307.00 1125.00
C 1301.82 1095.67 1267.79 1082.49 1239.00 1090.00 C 1210.21 1097.51 1179.26 1082.10 1161.75 1060.25 C 1144.24 1038.40 1132.36 1018.22 1116.77 996.23 C 1101.18 974.24 1082.66 943.96 1095.23 917.23 C 1107.80 890.50 1117.50 871.73 1140.00 853.00
C 1138.18 864.28 1137.23 876.40 1137.00 888.00
C 1136.89 893.58 1136.56 899.44 1137.00 905.00
C 1136.55 922.95 1148.87 938.78 1161.25 950.75 C 1173.63 962.72 1183.21 974.29 1194.25 986.75 C 1205.29 999.21 1217.01 1011.35 1226.25 1024.75 C 1235.48 1038.16 1252.88 1051.61 1247.00 1069.00
C 1256.47 1069.50 1269.48 1067.60 1277.93 1071.07 C 1286.38 1074.55 1292.97 1076.68 1300.25 1081.75 C 1307.53 1086.83 1311.11 1091.58 1316.70 1098.30 C 1322.29 1105.02 1323.00 1113.25 1327.01 1120.99 C 1331.03 1128.73 1346.38 1124.11 1356.00 1125.00 C 1365.62 1125.89 1378.64 1124.59 1389.00 1125.00 C 1399.36 1125.41 1411.34 1124.78 1422.00 1125.00 C 1432.66 1125.22 1444.25 1124.84 1455.00 1125.00
C 1454.67 1094.79 1420.53 1076.73 1393.00 1081.00 C 1365.47 1085.27 1328.53 1080.43 1309.25 1060.75 C 1289.96 1041.07 1275.85 1026.15 1260.25 1004.75 C 1244.65 983.34 1224.96 968.49 1215.32 943.68 C 1205.69 918.87 1226.93 886.81 1238.25 865.25 C 1249.56 843.68 1267.08 824.02 1284.23 806.23 C 1301.38 788.44 1319.53 769.79 1339.77 755.77 C 1360.01 741.75 1376.92 723.30 1396.00 707.00
C 1401.92 701.08 1408.13 694.87 1414.00 689.00
C 1435.49 665.75 1455.16 647.12 1474.08 622.08 C 1493.00 597.04 1509.00 573.55 1521.22 543.22 C 1533.44 512.90 1543.77 474.08 1543.00 439.00 C 1542.23 403.92 1533.21 364.38 1525.00 331.00 C 1516.79 297.63 1509.00 255.87 1527.23 225.23 C 1545.46 194.59 1576.96 187.26 1610.33 182.33 C 1643.70 177.40 1684.00 161.71 1717.00 175.00
C 1713.58 139.37 1685.00 124.72 1654.69 111.31 C 1624.39 97.90 1578.93 100.26 1546.00 94.00 C 1513.07 87.74 1489.36 63.55 1455.22 59.78 C 1421.08 56.01 1378.85 59.09 1349.22 74.22 C 1319.60 89.36 1301.73 106.36 1281.25 131.25 C 1260.78 156.15 1250.97 184.62 1235.77 211.77 C 1220.58 238.92 1213.28 270.25 1191.25 293.25 C 1169.22 316.25 1137.40 323.42 1110.74 337.74 C 1084.09 352.06 1059.73 370.23 1035.22 388.22 C 1010.72 406.22 992.27 427.11 969.00 447.00 Z"/>
</g>
<g fill="#74746F" fill-opacity="1.00" stroke="None">
<path d="
M 947.00 469.00 
C 954.20 461.80 961.75 454.25 969.00 447.00
C 961.32 453.57 953.61 461.26 947.00 469.00 Z"/>
</g>
<g fill="#7B7C7A" fill-opacity="1.00" stroke="None">
<path d="
M 1396.00 707.00 
C 1402.30 701.61 1408.57 695.36 1414.00 689.00
C 1408.13 694.87 1401.92 701.08 1396.00 707.00 Z"/>
</g>
<g fill="#73766E" fill-opacity="1.00" stroke="None">
<path d="
M 1137.00 905.00 
C 1136.56 899.44 1136.89 893.58 1137.00 888.00
C 1136.35 893.36 1135.94 899.53 1137.00 905.00 Z"/>
</g>
<g fill="#6C6E6A" fill-opacity="1.00" stroke="None">
<path d="
M 1015.00 918.00 
C 1014.34 910.47 1015.00 902.57 1015.00 895.00
C 1014.31 902.09 1013.53 910.80 1015.00 918.00 Z"/>
</g>
<g fill="#0C140A" fill-opacity="1.00" stroke="None">
<path d="
M 1029.00 1125.00 
C 1036.06 1126.12 1043.88 1124.47 1051.00 1125.00 C 1058.12 1125.53 1064.86 1124.77 1072.00 1125.00 C 1079.14 1125.23 1086.86 1124.89 1094.00 1125.00 C 1101.14 1125.11 1107.90 1124.95 1115.00 1125.00 C 1122.10 1125.05 1128.86 1124.99 1136.00 1125.00 C 1143.14 1125.02 1150.85 1125.00 1158.00 1125.00 C 1165.15 1125.00 1171.86 1125.02 1179.00 1125.00 C 1186.14 1124.98 1193.90 1125.06 1201.00 1125.00 C 1208.10 1124.94 1214.99 1125.13 1222.00 1125.00 C 1229.01 1124.87 1236.07 1125.30 1243.00 1125.00 C 1249.93 1124.70 1258.30 1125.63 1265.00 1125.00 C 1271.70 1124.37 1279.90 1126.45 1286.00 1125.00 C 1292.10 1123.55 1302.11 1128.25 1307.00 1125.00
C 1277.04 1122.38 1244.77 1125.06 1214.00 1124.00 C 1183.23 1122.94 1151.65 1125.64 1121.00 1124.00 C 1090.35 1122.36 1058.71 1126.88 1029.00 1125.00 Z"/>
</g>
</svg>