<svg version="1.1" id="Layer_1" xmlns="http://www.w3.org/2000/svg" xmlns:xlink="http://www.w3.org/1999/xlink" x="0px" y="0px"
	 width="100%" viewBox="0 0 1024 752" enable-background="new 0 0 1024 752" xml:space="preserve">
<path fill="#000000" opacity="1.000000" stroke="none" 
	d="
M303.598694,663.540405 
	C277.975922,655.162781 254.092743,644.188538 231.983521,628.585449 
	C234.388016,626.041687 236.994370,626.129456 239.293671,625.616638 
	C301.439178,611.755249 362.346588,593.672729 422.269501,572.191589 
	C428.957123,569.794250 433.691498,564.785461 439.031586,560.637512 
	C449.684357,552.362854 459.988281,543.639526 470.457153,535.127075 
	C471.227936,534.500366 472.166321,534.079834 474.042908,532.953552 
	C466.963226,530.327148 461.085297,531.279175 455.469543,530.646240 
	C413.230530,525.885010 380.204773,505.577728 355.223053,471.685272 
	C346.332336,459.623322 338.263031,446.953766 329.314209,434.937317 
	C314.556366,415.120544 294.530975,401.342316 274.694214,387.104797 
	C237.922943,360.712799 213.474335,325.444031 202.815643,281.099609 
	C202.480469,279.705139 201.726120,278.271393 202.775894,275.572144 
	C240.115753,312.957367 283.752594,338.886414 334.094604,353.085449 
	C334.378906,352.615906 334.663208,352.146362 334.947510,351.676819 
	C328.195312,347.628632 321.438232,343.588562 314.691742,339.530853 
	C280.673340,319.070312 250.361633,294.387177 226.831070,262.051605 
	C207.068222,234.893524 194.643005,204.665726 189.732452,171.441467 
	C185.901566,145.522049 186.780319,119.669373 191.736908,93.953026 
	C192.100037,92.069031 192.334549,90.088844 193.841843,88.122604 
	C196.487564,90.358795 197.998123,93.123329 199.616058,95.740753 
	C221.324982,130.860657 248.074219,161.771301 278.492218,189.526611 
	C308.491302,216.899734 341.248047,240.576050 376.041199,261.526611 
	C410.039307,281.998383 445.636993,299.501373 480.471436,318.416962 
	C508.758240,333.777069 531.746216,354.541046 549.166016,381.691193 
	C559.679626,398.077515 569.624451,414.925659 582.667664,429.546936 
	C598.381653,447.162201 617.700012,457.551910 641.507996,459.971619 
	C655.470947,461.390717 669.091064,459.587463 682.803040,458.173401 
	C701.817383,456.212616 720.696777,455.824188 739.197754,461.637665 
	C752.044800,465.674530 763.313538,472.155396 771.287842,483.375366 
	C773.506348,486.496735 776.894897,486.781128 780.066528,487.512207 
	C793.157715,490.529633 805.667114,494.946503 816.716675,502.774780 
	C824.024231,507.951965 830.112976,514.259460 833.556702,522.751526 
	C834.175598,524.277832 835.068604,525.724548 834.580811,527.511353 
	C832.763428,528.863708 831.027405,527.552795 829.330444,527.268127 
	C801.807617,522.650696 774.566101,523.248840 748.001404,532.463379 
	C727.311340,539.640137 708.064392,549.933228 689.222534,561.024048 
	C672.565247,570.828857 656.990845,582.336060 640.145264,591.845398 
	C612.974670,607.183105 583.717712,614.964050 552.725220,617.497498 
	C528.762390,619.456360 505.207214,616.554138 481.595734,613.539246 
	C476.433533,612.880127 472.174530,613.506287 468.064697,617.677307 
	C451.342896,634.648193 433.859375,650.904846 418.065735,668.739197 
	C411.877228,675.727356 405.216217,677.891541 396.371552,677.817200 
	C364.857788,677.552246 334.033569,673.231445 303.598694,663.540405 
z"/>
<path fill="#000000" opacity="1.000000" stroke="none" 
	d="
M715.558594,407.548309 
	C706.950012,418.325836 700.353760,429.836792 695.750671,442.469391 
	C694.970520,444.610321 693.972778,446.363129 691.400757,446.692566 
	C671.974487,449.180695 652.669556,452.969208 632.939148,448.496399 
	C608.941101,443.056122 591.973755,428.737946 579.618469,408.110931 
	C578.677002,406.539124 578.385437,405.133026 579.261658,403.445312 
	C590.637146,381.534393 602.530884,359.978973 619.648682,341.818329 
	C634.719299,325.829468 653.126465,314.453278 672.119141,303.979370 
	C695.588196,291.036804 719.693115,279.211731 741.791138,263.897583 
	C777.899414,238.874176 807.868347,208.118668 829.602356,169.685989 
	C830.812378,167.546356 831.751221,165.184875 834.013611,163.319168 
	C836.665588,166.534332 836.602661,170.510712 836.957703,174.047180 
	C841.738953,221.679794 837.023010,267.524994 810.576050,309.060883 
	C800.034668,325.616455 786.815979,339.859680 772.344360,353.041626 
	C753.030762,370.633972 732.458435,386.923492 715.558594,407.548309 
z"/>
</svg>